<?xml version="1.0" standalone="no"?>
<!DOCTYPE svg PUBLIC "-//W3C//DTD SVG 20010904//EN"
 "http://www.w3.org/TR/2001/REC-SVG-20010904/DTD/svg10.dtd">
<svg version="1.0" xmlns="http://www.w3.org/2000/svg"
 width="16.000000pt" height="16.000000pt" viewBox="0 0 16.000000 16.000000"
 preserveAspectRatio="xMidYMid meet">

<g transform="translate(0.000000,16.000000) scale(0.100000,-0.100000)"
fill="#000000" stroke="none">
<path d="M65 130 c-4 -13 -15 -20 -30 -20 -32 0 -39 -14 -16 -34 12 -11 16
-25 13 -48 l-5 -32 27 17 c25 17 27 17 52 0 l27 -17 -5 32 c-3 23 1 37 13 48
23 20 16 34 -16 34 -15 0 -26 7 -30 20 -3 11 -10 20 -15 20 -5 0 -12 -9 -15
-20z m29 -15 c3 -8 15 -15 26 -15 23 0 27 -18 5 -26 -10 -4 -13 -14 -9 -30 7
-26 -5 -31 -24 -12 -9 9 -15 9 -24 0 -20 -20 -31 -14 -24 13 5 18 2 27 -9 31
-22 9 -18 24 5 24 11 0 23 7 26 15 4 8 10 15 14 15 4 0 10 -7 14 -15z"/>
</g>
</svg>
