<?xml version="1.0" standalone="no"?>
<!DOCTYPE svg PUBLIC "-//W3C//DTD SVG 20010904//EN"
 "http://www.w3.org/TR/2001/REC-SVG-20010904/DTD/svg10.dtd">
<svg version="1.0" xmlns="http://www.w3.org/2000/svg"
 width="16.000000pt" height="16.000000pt" viewBox="0 0 16.000000 16.000000"
 preserveAspectRatio="xMidYMid meet">

<g transform="translate(0.000000,16.000000) scale(0.100000,-0.100000)"
fill="#000000" stroke="none">
<path d="M65 130 c-4 -13 -15 -20 -30 -20 -32 0 -39 -14 -16 -34 12 -11 16
-25 13 -48 l-5 -32 27 17 c25 17 27 17 52 0 l27 -17 -5 32 c-3 23 1 37 13 48
23 20 16 34 -16 34 -15 0 -26 7 -30 20 -3 11 -10 20 -15 20 -5 0 -12 -9 -15
-20z"/>
</g>
</svg>
